<svg width="840" height="600" viewBox="0 0 840 600" fill="none" xmlns="http://www.w3.org/2000/svg">
<rect y="75" width="840" height="525" rx="15" fill="white"/>
<circle cx="421" cy="75" r="75" fill="white"/>
<path d="M420.5 105.75C421.958 105.75 423.182 105.255 424.172 104.266C425.161 103.276 425.656 102.052 425.656 100.594C425.656 99.1354 425.161 97.9115 424.172 96.9219C423.182 95.9323 421.958 95.4375 420.5 95.4375C419.042 95.4375 417.818 95.9323 416.828 96.9219C415.839 97.9115 415.344 99.1354 415.344 100.594C415.344 102.052 415.839 103.276 416.828 104.266C417.818 105.255 419.042 105.75 420.5 105.75ZM416.281 81.8438H425.656V42.3125H416.281V81.8438ZM420.5 137C411.958 137 403.885 135.359 396.281 132.078C388.677 128.797 382.036 124.318 376.359 118.641C370.682 112.964 366.203 106.323 362.922 98.7188C359.641 91.1146 358 82.9896 358 74.3438C358 65.8021 359.641 57.7292 362.922 50.125C366.203 42.5208 370.682 35.9063 376.359 30.2813C382.036 24.6563 388.677 20.2031 396.281 16.9219C403.885 13.6406 412.01 12 420.656 12C429.198 12 437.271 13.6406 444.875 16.9219C452.479 20.2031 459.094 24.6563 464.719 30.2813C470.344 35.9063 474.797 42.5208 478.078 50.125C481.359 57.7292 483 65.8542 483 74.5C483 83.0417 481.359 91.1146 478.078 98.7188C474.797 106.323 470.344 112.964 464.719 118.641C459.094 124.318 452.479 128.797 444.875 132.078C437.271 135.359 429.146 137 420.5 137Z" fill="#C96665"/>
</svg>
