<svg width="600" height="300" viewBox="0 0 600 300" fill="none" xmlns="http://www.w3.org/2000/svg">
<g clip-path="url(#clip0_124_528)">
<rect width="600" height="300" rx="20" fill="#0C4E6E"/>
<path fill-rule="evenodd" clip-rule="evenodd" d="M499.409 299.641L503 299.812C503.893 278.826 499.455 256.738 510.491 237.991C511.856 235.674 513.615 232.956 515.328 231.237C516.295 230.267 517.111 229.287 518.046 228.273C521.06 225.008 523.237 223.184 526.093 218.813C538.978 199.095 526.599 172.843 500.883 173.001C486.777 173.087 476.662 181.091 472.853 191.125C468.55 202.462 471.204 213.073 478.347 222.058C483.259 228.236 487.21 230.435 491.518 237.984C498.704 250.577 498.924 262.343 499.181 276.639C499.32 284.292 499.208 292.006 499.408 299.642L499.409 299.641Z" fill="white" fill-opacity="0.5"/>
<path fill-rule="evenodd" clip-rule="evenodd" d="M505.667 299.768L508.697 299.776C509.776 291.697 510.128 287.449 515.064 280.648C525.569 266.177 546.855 266.264 555.704 261.203C570.2 252.911 567.053 225.018 545.653 220.495C539.882 219.276 536.003 219.607 531.185 222.006C516.154 229.489 506.897 248.303 505.84 265.514C505.497 271.075 505.61 276.954 505.602 282.552C505.594 287.881 505.266 294.599 505.668 299.768H505.667Z" fill="white" fill-opacity="0.5"/>
<path fill-rule="evenodd" clip-rule="evenodd" d="M496.383 299.776C496.733 295.988 496.487 269.955 496.206 265.456C495.572 255.3 492.387 246.122 488.05 238.848C484.16 232.326 477.644 224.992 470.365 221.758C465.285 219.501 461.673 219.271 455.774 220.655C450.88 221.804 447.805 223.594 444.469 226.851C434.906 236.187 434.378 255.326 447.397 261.771C458.103 267.07 487.952 266.934 493.141 294.314C493.376 295.555 493.555 296.873 493.611 298.182C493.707 300.43 493.9 299.777 496.384 299.777L496.383 299.776Z" fill="white" fill-opacity="0.5"/>
<path fill-rule="evenodd" clip-rule="evenodd" d="M436 273.329C436.004 278.197 437.799 282.934 441.284 286.089C441.816 286.571 442.021 286.976 442.56 287.41C456.801 298.885 470.243 282.796 483.637 293.41C485.511 294.895 486.746 296.634 487.677 299.776L490.457 299.779C490.84 293.528 487.603 286.659 484.726 283.1C481.396 278.982 477.906 276.195 471.777 273.573C466.461 271.299 460.746 269.596 454.849 268.02C451.887 267.229 448.834 266.617 446.115 265.416C443.121 264.092 441.355 262.777 439.903 260.334C437.099 262.381 435.997 268.764 436.001 273.329L436 273.329Z" fill="white" fill-opacity="0.5"/>
<path fill-rule="evenodd" clip-rule="evenodd" d="M511.589 299.762L514.35 299.779C516.423 293.307 522.107 289.654 528.791 289.426C533.403 289.269 543.235 292.74 550.971 291.5C557.666 290.427 562.379 285.278 564.711 280.377C567.177 275.193 565.993 262.885 562.109 260.309C561.131 262.461 558.635 264.257 556.093 265.371C551.203 267.515 539.821 269.424 530.417 273.52C524.251 276.205 520.772 278.806 517.395 282.977C514.408 286.666 511.275 293.378 511.589 299.76V299.762Z" fill="white" fill-opacity="0.5"/>
</g>
<defs>
<clipPath id="clip0_124_528">
<rect width="600" height="300" rx="20" fill="white"/>
</clipPath>
</defs>
</svg>
