<svg width="702" height="701" viewBox="0 0 702 701" fill="none" xmlns="http://www.w3.org/2000/svg">
<path fill-rule="evenodd" clip-rule="evenodd" d="M334.028 625.976L332.467 649.195L321.726 648.643L324.712 592.497C330.376 591.804 341.674 592.444 347.278 593.12C362.93 595.009 360.965 616.19 353.981 622.359C348.895 626.848 341.411 625.248 334.028 625.98V625.976ZM243.729 610.986C246.811 615.747 248.613 613.454 246.171 625.682C244.834 632.377 244.715 634.49 245.518 640.961L233.956 638.427C232.825 626.725 243.567 609.929 224.254 612.178C221.689 619.618 222.325 628.812 218.602 635.038L208.036 633.122L219.755 577.327C226.257 577.029 245.202 581.755 249.201 585.408C254.602 590.344 255.356 607.557 243.738 610.986H243.729ZM397.018 591.055C403.892 589.56 420.597 586.232 425.871 589.59C433.456 594.413 433.618 608.018 426.151 613.419C431.268 616.229 433.368 615.515 435.468 622.429C442.053 644.092 424.143 646.766 405.111 647.266C403.151 643.574 396.834 597.162 397.018 591.055ZM271.227 586.398L282.513 587.337C282.008 596.772 280.312 606.843 279.141 616.159C277.729 627.418 273.437 638.708 288.55 636.709C293.728 633.951 296.336 598.736 297.573 589.367L308.709 590.638C308.209 601.608 305.877 615.445 304.469 626.458C302.733 640.01 299.12 648.081 283.552 646.499C256.983 643.794 268.461 620.167 271.227 586.398ZM498.655 572.693C501.562 570.782 509.41 568.581 512.632 568.116C516.771 575.657 539.644 613.809 540.608 618.829L530.174 622.078L523.759 609.486L511.913 612.599L513.049 627.102L502.246 630.584L498.655 572.693ZM475.536 616.006L485.734 614.673C488.251 629.654 483.739 638.747 468.228 638.568C454.413 638.405 452.672 625.866 450.085 613.362C447.551 601.112 444.386 586.898 455.412 581.519C469.381 574.701 479.373 580.515 481.394 594.343L472.038 596.873C470.959 595.338 472.174 597.429 470.788 594.729L467.794 589.069C465.452 587.012 461.686 587.495 459.871 589.713C455.724 594.781 463.107 625.436 466.487 628.124C469.144 630.233 473.423 630.334 475.177 627.655C476.865 625.073 475.65 619.189 475.541 616.001L475.536 616.006ZM183.966 603.642L177.232 601.963L179.262 593.519L195.922 598.236L188.53 627.822L181.099 626.156L181.515 620.943C173.479 629.15 159.739 622.53 157.296 614.204C155.109 606.746 160.177 589.783 162.61 582.615C166.276 571.825 170.151 563.534 184.409 566.45C196.361 568.896 202.358 574.697 199.127 589.104C195.743 590.305 192.437 588.573 188.881 587.451C189.026 583.457 190.652 580.375 187.605 577.319C185.211 574.916 180.205 574.25 177.328 576.565C174.058 579.195 171.734 590.656 170.296 595.886C168.38 602.844 164.351 612.976 171.624 615.936C179.104 618.978 182.809 610.061 183.971 603.633L183.966 603.642ZM120.63 387.153C124.87 389.205 124.221 396.097 144.016 405.199C153.85 409.719 164.881 411.846 175.842 414.845C217.467 426.239 260.253 437.327 286.423 470.021C297.809 484.248 309.042 507.077 308.056 532.151L297.726 532.147C292.653 511.098 271.1 495.152 244.978 493.99C228.042 493.236 189.723 506.674 161.598 501.4C137.826 496.945 120.674 478.821 112.156 460.665C102.742 440.607 107.271 400.284 120.622 387.149L120.63 387.153ZM394.751 532.151L386.031 532.134C384.465 507.165 396.277 484.919 407.334 470.354C418.755 455.308 433.671 444.768 455.202 435.39C474.738 426.88 496.037 420.891 517.731 415.002C528.604 412.052 539.942 409.807 549.706 405.484C554.248 403.472 559.478 400.477 562.802 397.873C564.858 396.264 566.537 394.515 568.12 392.84C570.755 390.056 570.505 389.284 572.789 387.061C587.253 396.974 590.103 440.76 582.303 459.793C574.889 477.882 555.616 496.958 532.655 501.36C504.714 506.718 466.47 493.333 449.384 493.977C435.135 494.516 423.687 499.681 414.656 505.938C410.438 508.862 406.12 512.685 403.138 517.012C401.428 519.489 400.223 521.274 398.951 524.089C397.465 527.386 397.504 530.705 394.755 532.151H394.751ZM375.443 531.713L364.061 532.112C363.131 511.694 363.864 489.47 363.885 469.083C363.96 408.606 362.013 362.869 393.55 309.674C408.855 283.854 429.637 260.359 456.355 246.263C490.566 228.222 530.086 240.305 552.297 259.745C585.719 288.997 596.894 358.629 550.166 389.012C537.868 397.009 518.31 400.749 502.154 405.046C426.029 425.288 382.172 451.3 375.443 531.713ZM329.885 532.151L320.02 531.932C310.283 404.708 183.804 413.459 145.2 389.898C100.787 362.79 103.466 299.542 140.329 260.863C148.944 251.827 165.802 243.291 182.379 239.832C204.822 235.145 216.871 236.57 235.412 245.119C261.735 257.255 285.165 283.982 299.506 308.113C331.928 362.667 330.03 405.988 330.135 468.14C330.17 488.115 331.345 512.711 329.889 532.151H329.885ZM341.113 532.059C337.558 454.431 351.254 372.917 311.931 304.18C307.516 296.468 299.418 284.376 294.455 279.264L273.669 257.684C261.735 244.172 247.824 227.481 240.66 204.963C219.878 139.663 262.875 65.5331 345.765 64.6211C431.483 63.6785 474.638 141.614 453.216 205.537C437.919 251.183 404.756 265.094 381.752 304.461C341.775 372.874 356.84 455.071 354.297 532.239L341.113 532.068V532.059ZM314.071 16.7356C242.265 20.4711 172.979 36.0354 108.411 62.2141C71.2806 77.2655 79.1417 70.86 65.2872 102.971C7.936 235.903 1.00002 385.794 43.0588 528.758C47.3861 543.472 69.4041 607.869 77.6554 619.452C80.457 623.38 100.283 630.632 106.149 633.245C186.733 669.1 288.032 690.85 388.135 684.796C436.814 681.854 486.905 673.703 530.695 660.643C546.632 655.89 608.995 635.38 622.003 626.585C625.594 624.156 633.153 604.33 635.849 597.999C694.081 461.104 701.355 320.104 658.121 173.738C652.321 154.105 633.253 100.415 623.498 83.1273C620.969 78.6466 601.3 71.3291 595.316 68.8871C508.866 33.6196 420.544 11.1939 314.071 16.7313V16.7356Z" fill="#004467" stroke="#004467" stroke-width="0.75552" stroke-miterlimit="2.61313"/>
<path fill-rule="evenodd" clip-rule="evenodd" d="M341.118 532.068L354.301 532.239C356.844 455.075 341.78 372.878 381.756 304.46C404.756 265.094 437.923 251.182 453.22 205.537C474.642 141.614 431.487 63.6781 345.769 64.6208C262.875 65.5327 219.883 139.667 240.664 204.963C247.828 227.481 261.74 244.172 273.674 257.684L294.46 279.264C299.423 284.376 307.525 296.468 311.936 304.18C351.259 372.917 337.562 454.43 341.118 532.059V532.068Z" fill="#004467" stroke="#004467" stroke-width="0.75552" stroke-miterlimit="2.61313"/>
<path fill-rule="evenodd" clip-rule="evenodd" d="M314.075 16.7441C420.548 11.2067 508.87 33.6281 595.32 68.8999C601.305 71.342 620.973 78.6594 623.503 83.1402C633.258 100.428 652.325 154.118 658.126 173.751C701.359 320.117 694.086 461.116 635.853 598.012C633.157 604.343 625.598 624.169 622.008 626.598C608.999 635.393 546.637 655.903 530.7 660.655C486.909 673.712 436.818 681.862 388.139 684.809C288.037 690.863 186.737 669.113 106.153 633.258C100.287 630.649 80.4613 623.397 77.6598 619.465C69.4129 607.881 47.3948 543.48 43.0631 528.771C1.00439 385.811 7.93598 235.916 65.2916 102.984C79.146 70.8728 71.285 77.2783 108.416 62.227C172.984 36.0482 242.269 20.4839 314.075 16.7485V16.7441ZM1 321.358V365.806C2.30653 370.032 2.96417 396.136 3.67005 403.34C4.88012 415.69 6.12527 427.344 8.00175 439.624C19.493 514.872 35.1582 558.124 64.3753 626.16C67.6854 633.863 67.0278 631.964 74.696 635.524C108.161 651.08 141.741 664.452 177.736 674.839C213.223 685.076 241.177 691.034 278.001 696.006C285.371 697.001 309.603 698.312 314.286 699.838H391.252C402.915 695.725 495.893 699.781 625.489 641.395C636.713 636.34 634.38 638.506 643.372 617.873C724.46 431.82 718.239 257.544 635.638 73.8366C633.139 68.2817 628.593 67.3741 622.906 64.8006C618.259 62.7005 613.537 60.5478 608.622 58.4389C545.528 31.3921 481.565 12.4562 412.674 4.69598C404.44 3.77089 380.094 3.2097 374.636 1H325.869C322.493 2.14431 294.929 3.1264 288.313 3.72266C227.108 9.2469 180.165 20.8083 122.761 40.7526C114.212 43.7208 70.4081 61.2186 66.5762 64.7304C62.8188 68.1721 45.4438 112.055 42.0898 121.205C34.7373 141.241 28.3932 160.607 22.6629 181.805C13.2235 216.743 7.86584 248.46 4.03395 284.805C3.21408 292.566 2.84141 316.487 1 321.353V321.358Z" fill="#004467" stroke="#004467" stroke-width="0.75552" stroke-miterlimit="2.61313"/>
<path fill-rule="evenodd" clip-rule="evenodd" d="M375.443 531.717C382.172 451.304 426.029 425.292 502.154 405.049C518.31 400.753 537.868 397.013 550.166 389.016C596.894 358.628 585.719 289.001 552.297 259.749C530.086 240.309 490.566 228.226 456.355 246.267C429.637 260.358 408.851 283.858 393.55 309.677C362.013 362.872 363.96 408.61 363.885 469.087C363.859 489.474 363.131 511.698 364.061 532.116L375.443 531.717Z" fill="#004467" stroke="#004467" stroke-width="0.75552" stroke-miterlimit="2.61313"/>
<path fill-rule="evenodd" clip-rule="evenodd" d="M329.885 532.159C331.341 512.719 330.166 488.119 330.131 468.148C330.025 406 331.924 362.675 299.502 308.121C285.161 283.989 261.731 257.262 235.407 245.127C216.866 236.582 204.818 235.157 182.375 239.839C165.802 243.298 148.94 251.835 140.325 260.871C103.461 299.549 100.783 362.797 145.196 389.906C183.804 413.467 310.278 404.716 320.016 531.94L329.881 532.159H329.885Z" fill="#004467" stroke="#004467" stroke-width="0.75552" stroke-miterlimit="2.61313"/>
<path fill-rule="evenodd" clip-rule="evenodd" d="M120.63 387.157C107.276 400.293 102.751 440.615 112.164 460.673C120.683 478.829 137.83 496.949 161.606 501.408C189.732 506.682 228.051 493.244 244.987 493.999C271.113 495.16 292.662 511.106 297.735 532.155L308.064 532.16C309.051 507.086 297.818 484.257 286.432 470.03C260.258 437.336 217.476 426.248 175.851 414.853C164.89 411.854 153.855 409.728 144.025 405.207C124.226 396.106 124.879 389.213 120.639 387.162L120.63 387.157Z" fill="#004467" stroke="#004467" stroke-width="0.75552" stroke-miterlimit="2.61313"/>
<path fill-rule="evenodd" clip-rule="evenodd" d="M394.751 532.16C397.5 530.714 397.461 527.39 398.947 524.098C400.218 521.283 401.424 519.499 403.134 517.021C406.115 512.694 410.434 508.871 414.651 505.947C423.683 499.695 435.135 494.53 449.38 493.986C466.465 493.342 504.71 506.731 532.651 501.369C555.612 496.968 574.885 477.891 582.299 459.802C590.103 440.765 587.249 396.979 572.785 387.07C570.501 389.293 570.751 390.065 568.116 392.849C566.529 394.528 564.854 396.273 562.797 397.882C559.474 400.486 554.244 403.485 549.702 405.493C539.938 409.816 528.6 412.061 517.727 415.012C496.033 420.9 474.734 426.889 455.198 435.399C433.666 444.777 418.751 455.317 407.33 470.364C396.272 484.928 384.461 507.174 386.026 532.143L394.747 532.16H394.751Z" fill="#004467" stroke="#004467" stroke-width="0.75552" stroke-miterlimit="2.61313"/>
<path fill-rule="evenodd" clip-rule="evenodd" d="M411.78 620.837C415.831 620.004 418.746 619.842 422.311 620.626C424.735 624.827 425.59 629.448 424.139 635.178L414.283 636.73L411.784 620.837H411.78ZM410.675 610.218C410.079 608.508 408.435 600.38 409.167 598.337C410.324 595.097 417.023 595.618 419.023 597.398C425.156 602.861 417.843 614.922 410.675 610.218ZM397.018 591.059C396.838 597.166 403.151 643.583 405.111 647.27C424.139 646.77 442.053 644.096 435.468 622.433C433.368 615.519 431.268 616.233 426.152 613.423C433.618 608.017 433.451 594.417 425.871 589.594C420.597 586.24 403.892 589.564 397.018 591.059Z" fill="#004467" stroke="#004467" stroke-width="0.75552" stroke-miterlimit="2.61313"/>
<path fill-rule="evenodd" clip-rule="evenodd" d="M229.291 588.003C234.465 587.775 239.007 589.125 241.831 591.642C244.049 605.593 237.06 605.549 226.284 602.594L229.287 588.003H229.291ZM243.733 610.99C255.352 607.566 254.598 590.348 249.196 585.412C245.202 581.76 226.253 577.038 219.751 577.331L208.032 633.126L218.598 635.042C222.32 628.821 221.689 619.623 224.249 612.182C243.567 609.933 232.821 626.729 233.952 638.431L245.513 640.965C244.711 634.494 244.829 632.381 246.167 625.686C248.609 613.458 246.802 615.751 243.725 610.99H243.733Z" fill="#004467" stroke="#004467" stroke-width="0.75552" stroke-miterlimit="2.61313"/>
<path fill-rule="evenodd" clip-rule="evenodd" d="M271.227 586.402C268.461 620.17 256.983 643.797 283.552 646.503C299.12 648.085 302.733 640.014 304.469 626.462C305.881 615.448 308.209 601.607 308.709 590.642L297.573 589.371C296.336 598.74 293.728 633.955 288.55 636.712C273.433 638.712 277.725 627.422 279.141 616.163C280.312 606.851 282.004 596.776 282.513 587.341L271.227 586.402Z" fill="#004467" stroke="#004467" stroke-width="0.75552" stroke-miterlimit="2.61313"/>
<path fill-rule="evenodd" clip-rule="evenodd" d="M183.971 603.646C182.809 610.074 179.1 618.991 171.624 615.949C164.351 612.989 168.376 602.857 170.296 595.899C171.734 590.669 174.058 579.208 177.328 576.578C180.204 574.267 185.211 574.933 187.605 577.332C190.652 580.383 189.03 583.47 188.881 587.464C192.437 588.586 195.742 590.322 199.127 589.117C202.358 574.71 196.361 568.909 184.409 566.463C170.151 563.547 166.276 571.834 162.61 582.628C160.177 589.792 155.109 606.759 157.296 614.217C159.738 622.543 173.479 629.163 181.515 620.956L181.099 626.169L188.53 627.835L195.922 598.249L179.262 593.532L177.232 601.976L183.966 603.655L183.971 603.646Z" fill="#004467" stroke="#004467" stroke-width="0.75552" stroke-miterlimit="2.61313"/>
<path fill-rule="evenodd" clip-rule="evenodd" d="M508.331 578.326L518.849 600.848L510.488 603.102L508.331 578.326ZM502.246 630.587L513.049 627.106L511.913 612.602L523.76 609.49L530.174 622.081L540.608 618.832C539.644 613.808 516.771 575.66 512.632 568.119C509.41 568.584 501.566 570.785 498.655 572.696L502.246 630.587Z" fill="#004467" stroke="#004467" stroke-width="0.75552" stroke-miterlimit="2.61313"/>
<path fill-rule="evenodd" clip-rule="evenodd" d="M335.339 600.757C337.479 600.784 340.793 600.709 342.832 601.108C351.294 602.765 347.615 613.555 345.967 615.261C343.419 617.896 338.487 617.238 334.199 617.058L335.335 600.757H335.339ZM334.028 625.976C341.411 625.244 348.895 626.844 353.981 622.355C360.97 616.186 362.93 595.01 347.278 593.116C341.675 592.44 330.376 591.8 324.712 592.493L321.726 648.639L332.467 649.191L334.028 625.972V625.976Z" fill="#004467" stroke="#004467" stroke-width="0.75552" stroke-miterlimit="2.61313"/>
<path fill-rule="evenodd" clip-rule="evenodd" d="M475.541 616.01C475.65 619.193 476.865 625.081 475.177 627.663C473.423 630.342 469.144 630.246 466.487 628.132C463.103 625.44 455.724 594.789 459.871 589.721C461.686 587.498 465.452 587.021 467.794 589.077L470.788 594.737C472.174 597.438 470.959 595.346 472.038 596.881L481.394 594.351C479.373 580.523 469.385 574.709 455.412 581.527C444.386 586.907 447.551 601.125 450.085 613.37C452.672 625.874 454.413 638.413 468.228 638.576C483.744 638.755 488.251 629.658 485.734 614.681L475.536 616.014L475.541 616.01Z" fill="#004467" stroke="#004467" stroke-width="0.75552" stroke-miterlimit="2.61313"/>
<path fill-rule="evenodd" clip-rule="evenodd" d="M226.284 602.594C237.06 605.549 244.045 605.593 241.831 591.642C239.007 589.126 234.465 587.775 229.291 588.003L226.288 602.594H226.284Z" fill="#004467" stroke="#004467" stroke-width="0.75552" stroke-miterlimit="2.61313"/>
<path fill-rule="evenodd" clip-rule="evenodd" d="M334.199 617.058C338.487 617.238 343.419 617.895 345.967 615.26C347.615 613.555 351.294 602.765 342.832 601.108C340.793 600.709 337.479 600.779 335.339 600.757L334.204 617.058H334.199Z" fill="#004467" stroke="#004467" stroke-width="0.75552" stroke-miterlimit="2.61313"/>
<path fill-rule="evenodd" clip-rule="evenodd" d="M424.139 635.178C425.59 629.447 424.74 624.826 422.311 620.626C418.742 619.841 415.831 620.008 411.78 620.837L414.279 636.73L424.135 635.178H424.139Z" fill="#004467" stroke="#004467" stroke-width="0.75552" stroke-miterlimit="2.61313"/>
<path fill-rule="evenodd" clip-rule="evenodd" d="M410.675 610.214C417.843 614.918 425.156 602.857 419.023 597.394C417.019 595.61 410.324 595.092 409.167 598.332C408.434 600.375 410.083 608.504 410.675 610.214Z" fill="#004467" stroke="#004467" stroke-width="0.75552" stroke-miterlimit="2.61313"/>
<path fill-rule="evenodd" clip-rule="evenodd" d="M510.488 603.103L518.849 600.849L508.331 578.327L510.488 603.103Z" fill="#004467" stroke="#004467" stroke-width="0.75552" stroke-miterlimit="2.61313"/>
<path fill-rule="evenodd" clip-rule="evenodd" d="M346.186 466.855L357.05 467.373C359.751 403.879 346.322 337.045 379.717 280.32C383.843 273.31 389.17 265.085 394.352 259.885C397.276 256.952 399.745 253.984 402.577 250.919C411.696 241.037 418.282 235.521 426.923 222.298C465.908 162.637 428.453 83.2059 350.645 83.6838C307.964 83.9425 277.357 108.161 265.835 138.523C252.818 172.826 260.845 204.928 282.46 232.115C297.318 250.805 309.274 257.461 322.309 280.307C344.051 318.407 344.717 354.008 345.498 397.263C345.914 420.421 345.581 443.759 346.182 466.864L346.186 466.855Z" fill="white"/>
<path fill-rule="evenodd" clip-rule="evenodd" d="M365.122 467.242L374.285 467.268C377.551 442.825 378.617 429.971 393.55 409.395C425.332 365.609 489.742 365.872 516.512 350.558C560.373 325.47 550.85 241.072 486.098 227.389C468.64 223.697 456.903 224.701 442.325 231.962C396.847 254.602 368.84 311.528 365.639 363.601C364.604 380.428 364.942 398.211 364.92 415.152C364.894 431.277 363.903 451.603 365.122 467.242Z" fill="white"/>
<path fill-rule="evenodd" clip-rule="evenodd" d="M337.027 467.264C338.088 455.799 337.343 377.035 336.492 363.421C334.576 332.692 324.939 304.921 311.813 282.912C300.045 263.174 280.333 240.989 258.307 231.204C242.935 224.373 232.01 223.676 214.157 227.867C199.351 231.344 190.043 236.759 179.95 246.614C151.014 274.863 149.418 332.771 188.811 352.272C221.202 368.306 311.515 367.893 327.219 450.735C327.93 454.488 328.473 458.478 328.64 462.441C328.929 469.246 329.512 467.268 337.027 467.268V467.264Z" fill="white"/>
<path fill-rule="evenodd" clip-rule="evenodd" d="M154.328 387.237C154.341 401.963 159.774 416.296 170.318 425.845C171.927 427.3 172.545 428.524 174.176 429.839C217.265 464.563 257.934 415.879 298.463 447.994C304.132 452.488 307.871 457.749 310.691 467.255L319.104 467.263C320.261 448.349 310.467 427.568 301.76 416.8C291.685 404.335 281.123 395.904 262.581 387.973C246.495 381.09 229.204 375.938 211.359 371.172C202.398 368.779 193.165 366.928 184.931 363.294C175.873 359.291 170.533 355.31 166.135 347.918C157.652 354.109 154.315 373.426 154.328 387.237Z" fill="white"/>
<path fill-rule="evenodd" clip-rule="evenodd" d="M383.04 467.22L391.393 467.273C397.667 447.688 414.862 436.635 435.087 435.947C449.042 435.474 478.794 445.974 502.197 442.225C522.453 438.977 536.715 423.399 543.77 408.567C551.232 392.88 547.65 355.64 535.9 347.849C532.94 354.359 525.386 359.796 517.696 363.167C502.903 369.652 468.46 375.426 440.006 387.82C421.351 395.945 410.824 403.814 400.604 416.437C391.568 427.599 382.089 447.907 383.036 467.216L383.04 467.22Z" fill="white"/>
</svg>
