<svg width="195" height="41" viewBox="0 0 195 41" fill="none" xmlns="http://www.w3.org/2000/svg">
<path fill-rule="evenodd" clip-rule="evenodd" d="M149.025 24.3053C148.087 23.3633 148.551 16.9472 148.695 15.7203C149.809 15.3029 152.175 14.9905 152.854 16.1908C154.441 16.998 155.317 24.3086 151.988 25.1217C151.454 25.2522 150.594 25.2999 150.052 25.1472C149.109 24.8819 149.262 24.6594 149.025 24.3053ZM146.089 13.0772C145.84 14.6727 145.76 24.2192 146.133 25.5635C147.005 28.7009 153.822 28.0388 155.588 26.1623C157.207 24.4417 157.579 18.0716 156.295 15.7041C154.472 12.3404 150.796 13.0572 146.089 13.0772Z" fill="#222222"/>
<path fill-rule="evenodd" clip-rule="evenodd" d="M117.63 24.366C116.72 24.6686 116.072 25.1943 114.893 24.6897C113.588 23.1695 113.955 19.9135 115.07 18.9661C115.797 18.1366 116.043 17.9563 118.019 18.4647C118.395 19.541 118.249 20.5843 118.257 21.7878C118.259 22.1013 118.301 23.1608 118.266 23.3931C118.064 24.7417 118.12 24.0465 117.63 24.3654V24.366ZM113.231 16.5612C112.958 16.9499 113.11 16.827 112.771 17.1583C112.437 17.4848 112.569 17.311 112.145 17.5644C111.362 20.0683 110.403 27.3004 114.496 27.7015C116.16 27.865 116.59 27.0518 118.019 26.5754C119.059 27.106 118.248 26.773 119.001 27.2749L120.561 27.3269L120.585 16.2363L114.603 16.2531L113.231 16.5617V16.5612Z" fill="#222222"/>
<path fill-rule="evenodd" clip-rule="evenodd" d="M139.564 17.9543L140.376 18.5282L140.5 19.1995L140.467 19.0799C141.408 20.1827 140.977 20.2737 140.971 20.4924C140.146 21.0159 137.371 21.3456 136.542 20.4648C136.138 18.2716 138.079 18.205 139.564 17.9543ZM135.441 16.767C135.117 17.427 135.801 17.0361 134.619 17.604C133.45 19.9472 133.252 24.548 134.828 26.562C136.255 28.3876 142.359 28.6367 142.506 25.9762L143.005 24.0537L140.806 24.0391L140.892 24.4186L139.823 25.4906C137.715 25.6812 135.957 24.9828 136.524 22.7555C138.107 21.8546 140.555 22.7836 142.993 22.2162L143.17 19.2006L142.541 17.715C140.951 15.4444 138.077 15.3123 135.441 16.767Z" fill="#222222"/>
<path fill-rule="evenodd" clip-rule="evenodd" d="M164.379 18.0849L165.263 18.8808L165.311 18.9842C166.225 20.2094 165.794 20.2711 165.781 20.492C164.898 21.022 162.197 21.3604 161.328 20.486C161.463 19.0232 161.555 19.2219 162.191 18.2587L164.379 18.0849H164.379ZM160.562 16.5436C160.149 17.1862 160.443 16.9675 159.607 17.5208C158.289 19.0995 158.304 22.5526 158.855 24.7604C159.614 27.8003 161.332 27.8745 164.614 27.999C165.146 27.6152 164.153 28.0212 165.32 27.5567C165.654 27.4235 166.141 27.332 166.511 27.2422C167.437 26.5405 166.897 27.1745 167.228 26.3055L167.797 23.9992L165.593 24.1177C164.736 26.1171 162.521 26.0873 161.57 24.4772C161.245 24.0463 161.518 24.8611 161.109 23.7187C160.727 22.6516 161.035 23.3749 161.032 22.7523C162.904 21.7675 165.834 22.6094 168.012 22.1649C168.175 19.3421 167.705 19.3442 167.23 17.2885C166.05 16.8782 166.618 17.1456 166.3 16.5501C164.535 15.6145 162.37 15.6097 160.562 16.543V16.5436Z" fill="#222222"/>
<path fill-rule="evenodd" clip-rule="evenodd" d="M101.508 13.7127C101.49 13.841 101.476 13.9828 101.442 14.0949L101 14.9509L101.161 15.0738L101.042 27.3191L103.426 27.5119L103.567 22.753C103.621 20.9896 103.494 22.3604 104.002 21.7985L108.894 21.7384L109.072 19.2821L103.696 19.2057C103.696 18.2929 103.458 16.6341 104.14 16.293C104.661 15.5561 103.442 15.8409 105.434 15.5307L110.355 15.5215L110.151 13.2227L103.089 13.2021L101.509 13.7127H101.508Z" fill="#222222"/>
<path fill-rule="evenodd" clip-rule="evenodd" d="M171.167 16.7325C170.742 17.7308 170.89 17.3318 170.411 17.6718C169.051 20.7139 169.126 25.2113 171.449 27.1745L173.297 27.9595C175.13 28.0445 176.698 27.6899 177.821 26.9319L178.489 25.9839L178.413 25.691L178.792 23.755C176.464 23.7095 177.02 23.8892 176.414 24.4913C176.373 24.5319 176.299 24.625 176.233 24.6829C175.795 26.1496 173.134 25.8513 172.613 24.5579C172.032 23.1183 172.22 20.2998 172.689 19.1146C173.705 17.8543 175.56 17.7953 176.192 19.3009C176.94 19.6777 177.575 19.7605 178.688 19.7318L178.376 18.3155C178.166 16.9918 177.201 16.2322 175.635 15.955C173.401 15.5593 172.829 16.0709 171.168 16.7325H171.167Z" fill="#222222"/>
<path fill-rule="evenodd" clip-rule="evenodd" d="M125.361 16.3501C124.431 16.8417 123.985 16.7491 123.78 17.9158L122.98 19.5221C122.753 22.0857 122.664 25.2978 124.249 26.8391C125.762 28.3117 129.389 28.4011 130.97 26.9149L131.877 25.9502L131.785 25.3005L131.933 23.6693C128.591 23.6655 130.31 23.8133 129.822 24.3092C129.762 24.3709 129.683 24.4776 129.634 24.5312C129.584 24.5869 129.511 24.6914 129.439 24.7618C128.953 25.7997 127.546 25.8971 126.635 25.3238L126.015 25.1402L125.657 24.2908C125.666 22.7353 125.225 20.3554 125.956 19.0863C126.581 18.0024 128.866 17.801 129.374 19.1664L131.776 19.7993L131.834 18.8941L131.773 18.2293L131.139 17.1302C130.611 16.6376 130.31 16.2261 129.365 16.2158L125.362 16.349L125.361 16.3501Z" fill="#222222"/>
<path fill-rule="evenodd" clip-rule="evenodd" d="M164.614 27.9991C165.084 27.9471 165.076 28.0754 165.633 27.8664C166.541 27.5264 166.093 27.7154 166.511 27.2422C166.141 27.3326 165.654 27.4241 165.32 27.5567C164.153 28.0207 165.146 27.6152 164.614 27.9991Z" fill="#222222"/>
<path fill-rule="evenodd" clip-rule="evenodd" d="M140.499 19.1998L140.376 18.5284L139.564 17.9551L140.499 19.1998Z" fill="#222222"/>
<path fill-rule="evenodd" clip-rule="evenodd" d="M134.619 17.6046C135.801 17.0361 135.117 17.4275 135.441 16.7676L134.619 17.6046Z" fill="#222222"/>
<path fill-rule="evenodd" clip-rule="evenodd" d="M112.145 17.5638C112.57 17.3109 112.438 17.4847 112.772 17.1577C113.111 16.8264 112.958 16.9493 113.232 16.5605L112.145 17.5632V17.5638Z" fill="#222222"/>
<path fill-rule="evenodd" clip-rule="evenodd" d="M170.411 17.6727C170.89 17.3327 170.743 17.7317 171.167 16.7334L170.411 17.6727Z" fill="#222222"/>
<path d="M12.232 26V15.57H15.816C16.4973 15.57 17.0947 15.7053 17.608 15.976C18.1213 16.2373 18.518 16.6107 18.798 17.096C19.0873 17.572 19.232 18.1273 19.232 18.762C19.232 19.3967 19.0873 19.952 18.798 20.428C18.518 20.904 18.1213 21.2773 17.608 21.548C17.104 21.8093 16.5067 21.94 15.816 21.94H13.352V26H12.232ZM13.352 20.89H15.872C16.544 20.89 17.0853 20.6987 17.496 20.316C17.9067 19.9333 18.112 19.4107 18.112 18.748C18.112 18.0853 17.9067 17.5673 17.496 17.194C17.0853 16.8113 16.544 16.62 15.872 16.62H13.352V20.89ZM24.3147 26.168C23.6053 26.168 22.9613 26 22.3827 25.664C21.804 25.3187 21.342 24.852 20.9967 24.264C20.6607 23.6667 20.4927 22.99 20.4927 22.234C20.4927 21.4873 20.6607 20.82 20.9967 20.232C21.3327 19.644 21.7853 19.182 22.3547 18.846C22.9333 18.5007 23.5867 18.328 24.3147 18.328C25.0427 18.328 25.6913 18.496 26.2607 18.832C26.8393 19.168 27.292 19.63 27.6187 20.218C27.9547 20.806 28.1227 21.478 28.1227 22.234C28.1227 22.9993 27.95 23.6807 27.6047 24.278C27.2593 24.866 26.7973 25.328 26.2187 25.664C25.6493 26 25.0147 26.168 24.3147 26.168ZM24.3147 25.118C24.8187 25.118 25.2713 24.992 25.6727 24.74C26.0833 24.488 26.4053 24.1427 26.6387 23.704C26.8813 23.2653 27.0027 22.7753 27.0027 22.234C27.0027 21.6927 26.8813 21.2073 26.6387 20.778C26.4053 20.3487 26.0833 20.008 25.6727 19.756C25.2713 19.504 24.8187 19.378 24.3147 19.378C23.8107 19.378 23.3533 19.504 22.9427 19.756C22.5413 20.008 22.2193 20.3487 21.9767 20.778C21.734 21.2073 21.6127 21.6927 21.6127 22.234C21.6127 22.7753 21.734 23.2653 21.9767 23.704C22.2193 24.1427 22.5413 24.488 22.9427 24.74C23.3533 24.992 23.8107 25.118 24.3147 25.118ZM31.4898 26L28.9138 18.496H30.1038L32.0218 24.39L33.8138 18.496H34.8638L36.6698 24.39L38.5878 18.496H39.7638L37.1878 26H36.1378L34.3458 20.064L32.5398 26H31.4898ZM44.2733 26.168C43.5733 26.168 42.9386 26 42.3693 25.664C41.8093 25.3187 41.366 24.8473 41.0393 24.25C40.7126 23.6527 40.5493 22.976 40.5493 22.22C40.5493 21.464 40.708 20.7967 41.0253 20.218C41.3426 19.63 41.772 19.168 42.3133 18.832C42.864 18.496 43.48 18.328 44.1613 18.328C44.7026 18.328 45.1833 18.4307 45.6033 18.636C46.0326 18.832 46.3966 19.1027 46.6953 19.448C46.994 19.784 47.2226 20.1667 47.3813 20.596C47.54 21.016 47.6193 21.45 47.6193 21.898C47.6193 21.9913 47.6146 22.0987 47.6053 22.22C47.596 22.332 47.582 22.4487 47.5633 22.57H41.6553C41.674 23.1113 41.8046 23.578 42.0473 23.97C42.2993 24.3527 42.6213 24.6513 43.0133 24.866C43.4053 25.0807 43.8253 25.188 44.2733 25.188C44.824 25.188 45.286 25.0573 45.6593 24.796C46.0326 24.5347 46.336 24.208 46.5693 23.816L47.4653 24.292C47.316 24.628 47.0873 24.9407 46.7793 25.23C46.4713 25.51 46.1026 25.7387 45.6733 25.916C45.2533 26.084 44.7866 26.168 44.2733 26.168ZM44.1613 19.308C43.7506 19.308 43.368 19.4013 43.0133 19.588C42.6586 19.7747 42.36 20.0407 42.1173 20.386C41.884 20.722 41.7393 21.1233 41.6833 21.59H46.4853C46.476 21.142 46.364 20.75 46.1493 20.414C45.944 20.0687 45.664 19.798 45.3093 19.602C44.964 19.406 44.5813 19.308 44.1613 19.308ZM49.4706 26V18.496H50.5206V19.308C50.7166 19.0187 50.9779 18.7947 51.3046 18.636C51.6406 18.4773 52.0372 18.398 52.4946 18.398H52.9706V19.448H52.3126C51.7712 19.448 51.3372 19.616 51.0106 19.952C50.6839 20.288 50.5206 20.764 50.5206 21.38V26H49.4706ZM57.617 26.168C56.917 26.168 56.2824 26 55.713 25.664C55.153 25.3187 54.7097 24.8473 54.383 24.25C54.0564 23.6527 53.893 22.976 53.893 22.22C53.893 21.464 54.0517 20.7967 54.369 20.218C54.6864 19.63 55.1157 19.168 55.657 18.832C56.2077 18.496 56.8237 18.328 57.505 18.328C58.0464 18.328 58.527 18.4307 58.947 18.636C59.3764 18.832 59.7404 19.1027 60.039 19.448C60.3377 19.784 60.5664 20.1667 60.725 20.596C60.8837 21.016 60.963 21.45 60.963 21.898C60.963 21.9913 60.9584 22.0987 60.949 22.22C60.9397 22.332 60.9257 22.4487 60.907 22.57H54.999C55.0177 23.1113 55.1484 23.578 55.391 23.97C55.643 24.3527 55.965 24.6513 56.357 24.866C56.749 25.0807 57.169 25.188 57.617 25.188C58.1677 25.188 58.6297 25.0573 59.003 24.796C59.3764 24.5347 59.6797 24.208 59.913 23.816L60.809 24.292C60.6597 24.628 60.431 24.9407 60.123 25.23C59.815 25.51 59.4464 25.7387 59.017 25.916C58.597 26.084 58.1304 26.168 57.617 26.168ZM57.505 19.308C57.0944 19.308 56.7117 19.4013 56.357 19.588C56.0024 19.7747 55.7037 20.0407 55.461 20.386C55.2277 20.722 55.083 21.1233 55.027 21.59H59.829C59.8197 21.142 59.7077 20.75 59.493 20.414C59.2877 20.0687 59.0077 19.798 58.653 19.602C58.3077 19.406 57.925 19.308 57.505 19.308ZM66.2023 26.168C65.5023 26.168 64.8723 26 64.3123 25.664C63.7523 25.3187 63.309 24.852 62.9823 24.264C62.665 23.6667 62.5063 22.9947 62.5063 22.248C62.5063 21.492 62.665 20.82 62.9823 20.232C63.309 19.644 63.7477 19.182 64.2983 18.846C64.8583 18.5007 65.493 18.328 66.2023 18.328C66.7903 18.328 67.3177 18.4447 67.7843 18.678C68.251 18.9113 68.6383 19.2287 68.9463 19.63V15.402H69.9963V26H68.9463V24.782C68.6663 25.2207 68.2837 25.5613 67.7983 25.804C67.313 26.0467 66.781 26.168 66.2023 26.168ZM66.2583 25.118C66.7623 25.118 67.215 24.992 67.6163 24.74C68.027 24.488 68.349 24.1473 68.5823 23.718C68.825 23.2793 68.9463 22.7893 68.9463 22.248C68.9463 21.7067 68.825 21.2213 68.5823 20.792C68.349 20.3533 68.027 20.008 67.6163 19.756C67.215 19.504 66.7623 19.378 66.2583 19.378C65.7637 19.378 65.3157 19.504 64.9143 19.756C64.513 20.008 64.1957 20.3487 63.9623 20.778C63.7383 21.2073 63.6263 21.6973 63.6263 22.248C63.6263 22.7893 63.7383 23.2793 63.9623 23.718C64.1957 24.1473 64.5083 24.488 64.9003 24.74C65.3017 24.992 65.7543 25.118 66.2583 25.118ZM78.3251 26.168C77.7465 26.168 77.2145 26.0467 76.7291 25.804C76.2438 25.5613 75.8611 25.2207 75.5811 24.782V26H74.5311V15.402H75.5811V19.63C75.8891 19.2287 76.2765 18.9113 76.7431 18.678C77.2098 18.4447 77.7371 18.328 78.3251 18.328C79.0345 18.328 79.6645 18.5007 80.2151 18.846C80.7751 19.182 81.2138 19.644 81.5311 20.232C81.8578 20.82 82.0211 21.492 82.0211 22.248C82.0211 22.9947 81.8578 23.6667 81.5311 24.264C81.2138 24.852 80.7751 25.3187 80.2151 25.664C79.6645 26 79.0345 26.168 78.3251 26.168ZM78.2691 25.118C78.7731 25.118 79.2211 24.992 79.6131 24.74C80.0145 24.488 80.3271 24.1473 80.5511 23.718C80.7845 23.2793 80.9011 22.7893 80.9011 22.248C80.9011 21.6973 80.7845 21.2073 80.5511 20.778C80.3271 20.3487 80.0145 20.008 79.6131 19.756C79.2211 19.504 78.7731 19.378 78.2691 19.378C77.7651 19.378 77.3078 19.504 76.8971 19.756C76.4958 20.008 76.1738 20.3533 75.9311 20.792C75.6978 21.2213 75.5811 21.7067 75.5811 22.248C75.5811 22.7893 75.6978 23.2793 75.9311 23.718C76.1738 24.1473 76.4958 24.488 76.8971 24.74C77.3078 24.992 77.7651 25.118 78.2691 25.118ZM83.8863 29.08C83.737 29.08 83.583 29.066 83.4243 29.038C83.275 29.0193 83.1256 28.982 82.9763 28.926V27.946C83.0696 27.9553 83.1863 27.9693 83.3263 27.988C83.4756 28.016 83.625 28.03 83.7743 28.03C84.2316 28.03 84.5816 27.932 84.8243 27.736C85.067 27.5493 85.305 27.1853 85.5383 26.644L85.8043 26L82.8083 18.496H83.9423L86.3923 24.684L88.8423 18.496H90.0043L86.5743 26.952C86.425 27.316 86.2336 27.6613 86.0003 27.988C85.7763 28.3147 85.4916 28.576 85.1463 28.772C84.801 28.9773 84.381 29.08 83.8863 29.08Z" fill="#222222"/>
<rect x="0.5" y="0.5" width="194" height="40" rx="14.5" stroke="#222222"/>
</svg>
