<svg width="15" height="15" viewBox="0 0 15 15" fill="none" xmlns="http://www.w3.org/2000/svg">
<path fill-rule="evenodd" clip-rule="evenodd" d="M0 7.38279C0 7.87791 0.046453 8.11699 0.41718 8.48907C0.625411 8.69802 0.931122 8.88598 1.34803 8.87666C1.7184 8.86832 1.61142 8.84428 1.61142 9.93164C1.61142 10.7304 1.55313 13.4319 1.66334 13.8348C1.83525 14.4631 2.47232 15 3.13486 15H5.62511C6.18524 15 6.06453 14.3177 6.06453 14.0039L6.06381 11.1322C6.06121 10.6544 6.35294 10.3125 6.70904 10.3125H8.29105C8.4947 10.3125 8.65038 10.442 8.7536 10.5531C8.87592 10.6849 8.9369 10.8534 8.93663 11.1025C8.9361 11.5228 8.89933 14.5073 8.95215 14.6904C9.00201 14.8633 9.16343 15 9.37498 15H11.8652C12.2439 15 12.6027 14.812 12.8104 14.6268C13.503 14.0092 13.3887 13.5272 13.3887 12.5684V9.28712C13.388 8.9154 13.2941 8.86859 13.6521 8.87666C14.4171 8.89379 14.957 8.25079 15 7.56744V7.39212C14.9858 7.16953 14.917 6.94821 14.7838 6.74939C14.5928 6.4643 9.49515 1.42374 8.78185 0.710434C8.25742 0.185993 8.14729 0 7.38297 0C6.85029 0 6.51077 0.418082 6.23313 0.695816L0.696077 6.23293C0.418435 6.51058 0.000269158 6.8501 0.000269158 7.38279H0Z" fill="#145272"/>
</svg>
