<svg width="570" height="825" viewBox="0 0 570 825" fill="none" xmlns="http://www.w3.org/2000/svg">
<path fill-rule="evenodd" clip-rule="evenodd" d="M440.303 835.087L462.18 836.13C467.616 708.283 440.582 573.71 507.818 459.501C516.129 445.388 526.846 428.823 537.284 418.353C543.178 412.442 548.147 406.475 553.844 400.299C572.201 380.401 585.464 369.296 602.865 342.664C681.362 222.534 605.942 62.6054 449.282 63.5609C363.338 64.0867 301.716 112.847 278.518 173.979C252.306 243.049 268.473 307.688 311.994 362.429C341.913 400.065 365.985 413.466 392.233 459.46C436.014 536.179 437.354 607.859 438.922 694.951C439.763 741.576 439.091 788.572 440.303 835.092V835.087Z" fill="#005FAE" fill-opacity="0.3"/>
<path fill-rule="evenodd" clip-rule="evenodd" d="M478.433 835.87L496.886 835.92C503.465 786.702 505.605 760.816 535.679 719.389C599.674 631.226 729.363 631.752 783.267 600.923C871.58 550.412 852.41 380.475 722.03 352.924C686.876 345.494 663.248 347.52 633.891 362.132C542.318 407.719 485.922 522.34 479.48 627.189C477.395 661.073 478.081 696.885 478.031 730.992C477.985 763.458 475.983 804.391 478.438 835.879L478.433 835.87Z" fill="#005FAE" fill-opacity="0.3"/>
<path fill-rule="evenodd" clip-rule="evenodd" d="M421.868 835.915C424.008 812.831 422.504 654.237 420.794 626.828C416.931 564.955 397.527 509.04 371.101 464.723C347.404 424.988 307.71 380.31 263.361 360.6C232.413 346.852 210.408 345.448 174.468 353.884C144.658 360.879 125.918 371.788 105.595 391.626C47.3293 448.506 44.1152 565.101 123.44 604.366C188.655 636.649 370.506 635.821 402.122 802.627C403.553 810.184 404.646 818.217 404.984 826.195C405.565 839.888 406.744 835.911 421.873 835.911L421.868 835.915Z" fill="#005FAE" fill-opacity="0.3"/>
<path fill-rule="evenodd" clip-rule="evenodd" d="M54.0045 674.78C54.0319 704.434 64.9682 733.297 86.196 752.517C89.4376 755.448 90.6812 757.912 93.9684 760.56C180.731 830.475 262.621 732.455 344.217 797.117C355.634 806.165 363.159 816.759 368.833 835.902L385.768 835.92C388.104 797.835 368.38 755.988 350.851 734.307C330.565 709.216 309.301 692.236 271.966 676.265C239.578 662.412 204.757 652.038 168.831 642.437C150.78 637.614 132.19 633.892 115.621 626.572C97.3837 618.512 86.6258 610.497 77.7744 595.615C60.6934 608.083 53.9771 646.973 53.9999 674.784L54.0045 674.78Z" fill="#005FAE" fill-opacity="0.3"/>
<path fill-rule="evenodd" clip-rule="evenodd" d="M514.511 835.824L531.331 835.929C543.964 796.5 578.588 774.243 619.311 772.858C647.41 771.903 707.313 793.053 754.441 785.5C795.228 778.962 823.94 747.589 838.15 717.729C853.178 686.15 845.954 611.164 822.299 595.469C816.337 608.581 801.13 619.527 785.645 626.316C755.854 639.378 686.51 651.005 629.214 675.959C591.655 692.318 570.454 708.164 549.88 733.575C531.683 756.047 512.6 796.939 514.511 835.824V835.824Z" fill="#005FAE" fill-opacity="0.3"/>
</svg>
