<svg width="130" height="127" viewBox="0 0 130 127" fill="none" xmlns="http://www.w3.org/2000/svg">
<path fill-rule="evenodd" clip-rule="evenodd" d="M63.4087 126.641L67.0002 126.812C67.8928 105.826 63.4552 83.7375 74.4915 64.991C75.8556 62.6738 77.6146 59.956 79.3279 58.237C80.2948 57.2668 81.1106 56.2868 82.0464 55.2732C85.0601 52.0078 87.2368 50.1843 90.0927 45.8129C102.978 26.0946 90.5986 -0.157046 64.8832 0.000707621C50.7769 0.0873494 40.6619 8.09109 36.853 18.1252C32.5503 29.4622 35.2043 40.0725 42.3474 49.0579C47.259 55.2356 51.2102 57.4352 55.5177 64.9845C62.7041 77.577 62.924 89.3431 63.1814 103.639C63.3196 111.292 63.2084 119.006 63.4078 126.642L63.4087 126.641Z" fill="white" fill-opacity="0.5"/>
<path fill-rule="evenodd" clip-rule="evenodd" d="M69.6674 126.768L72.6966 126.776C73.7764 118.697 74.1278 114.449 79.064 107.648C89.5689 93.1774 110.855 93.264 119.704 88.2028C134.2 79.9114 131.053 52.0176 109.653 47.4951C103.882 46.2756 100.003 46.6074 95.185 49.0064C80.1543 56.4895 70.8967 75.303 69.8399 92.5137C69.4974 98.0751 69.6102 103.954 69.602 109.552C69.5938 114.881 69.2661 121.599 69.6682 126.768H69.6674Z" fill="white" fill-opacity="0.5"/>
<path fill-rule="evenodd" clip-rule="evenodd" d="M60.3828 126.776C60.7334 122.988 60.4874 96.9552 60.2062 92.4563C59.5719 82.3005 56.3874 73.1222 52.0496 65.8483C48.1598 59.3257 41.6445 51.9922 34.3649 48.7578C29.2849 46.5011 25.6729 46.2706 19.7739 47.6552C14.8803 48.8036 11.8045 50.5937 8.46883 53.8509C-1.09446 63.187 -1.62248 82.3258 11.3975 88.7708C22.1026 94.0699 51.9524 93.9342 57.1411 121.314C57.3757 122.555 57.5555 123.873 57.6111 125.182C57.7067 127.43 57.8996 126.777 60.3836 126.777L60.3828 126.776Z" fill="white" fill-opacity="0.5"/>
<path fill-rule="evenodd" clip-rule="evenodd" d="M0 100.329C0.00408688 105.197 1.79904 109.934 5.28433 113.089C5.81562 113.571 6.02079 113.976 6.56025 114.41C20.8014 125.885 34.2431 109.796 47.6366 120.41C49.5109 121.895 50.7459 123.634 51.6769 126.776L54.4568 126.779C54.8402 120.528 51.6025 113.659 48.7262 110.1C45.3962 105.982 41.906 103.195 35.7773 100.573C30.4611 98.2991 24.746 96.5957 18.8487 95.0198C15.8865 94.2285 12.8344 93.6171 10.115 92.4156C7.12097 91.0923 5.35544 89.7771 3.90297 87.334C1.09855 89.3807 -0.00326995 95.7636 0.000816926 100.329L0 100.329Z" fill="white" fill-opacity="0.5"/>
<path fill-rule="evenodd" clip-rule="evenodd" d="M75.5892 126.762L78.3503 126.779C80.4231 120.307 86.1071 116.654 92.7908 116.426C97.4033 116.269 107.235 119.74 114.971 118.5C121.666 117.427 126.379 112.278 128.711 107.377C131.177 102.193 129.993 89.885 126.109 87.3086C125.131 89.4607 122.635 91.2573 120.093 92.3714C115.203 94.5154 103.821 96.424 94.4166 100.52C88.2511 103.205 84.7724 105.806 81.395 109.977C78.4083 113.666 75.2753 120.378 75.5892 126.76V126.762Z" fill="white" fill-opacity="0.5"/>
</svg>
