<svg width="255" height="339" viewBox="0 0 255 339" fill="none" xmlns="http://www.w3.org/2000/svg">
<path fill-rule="evenodd" clip-rule="evenodd" d="M188.65 376.774L199.335 377.282C201.99 314.848 188.788 249.131 221.622 193.357C225.681 186.463 230.914 178.378 236.011 173.263C238.888 170.377 241.315 167.461 244.1 164.446C253.066 154.731 259.542 149.305 268.038 136.3C306.373 77.6351 269.544 -0.467233 193.036 0.00210527C151.068 0.259877 120.975 24.0721 109.643 53.925C96.8415 87.6541 104.738 119.221 125.989 145.954C140.602 164.334 152.357 170.878 165.173 193.338C186.553 230.802 187.207 265.808 187.973 308.341C188.384 331.11 188.054 354.059 188.647 376.776L188.65 376.774Z" fill="white" fill-opacity="0.5"/>
<path fill-rule="evenodd" clip-rule="evenodd" d="M207.27 377.156L216.283 377.18C219.495 353.144 220.541 340.503 235.226 320.271C266.48 277.218 329.809 277.476 356.136 262.418C399.264 237.75 389.901 154.762 326.232 141.307C309.063 137.679 297.524 138.666 283.189 145.803C238.47 168.067 210.928 224.039 207.783 275.244C206.765 291.79 207.1 309.279 207.076 325.935C207.051 341.79 206.076 361.777 207.273 377.156H207.27Z" fill="white" fill-opacity="0.5"/>
<path fill-rule="evenodd" clip-rule="evenodd" d="M179.647 377.176C180.691 365.904 179.959 288.454 179.122 275.069C177.235 244.854 167.761 217.547 154.855 195.906C143.282 176.501 123.898 154.682 102.241 145.06C87.127 138.345 76.3808 137.66 58.8305 141.779C44.2712 145.196 35.1203 150.522 25.1961 160.212C-3.256 187.988 -4.82695 244.929 33.9093 264.104C65.7587 279.869 154.566 279.466 170.003 360.924C170.701 364.615 171.236 368.538 171.401 372.434C171.686 379.121 172.26 377.178 179.65 377.178L179.647 377.176Z" fill="white" fill-opacity="0.5"/>
<path fill-rule="evenodd" clip-rule="evenodd" d="M0 298.487C0.012159 312.968 5.3524 327.063 15.7216 336.449C17.3023 337.882 17.9127 339.086 19.5177 340.377C61.887 374.519 101.878 326.652 141.726 358.229C147.302 362.647 150.976 367.82 153.746 377.168L162.017 377.177C163.157 358.579 153.525 338.144 144.967 327.556C135.06 315.302 124.676 307.012 106.443 299.211C90.6261 292.446 73.6229 287.378 56.0775 282.69C47.2646 280.336 38.1842 278.517 30.0936 274.942C21.1859 271.005 15.9332 267.092 11.6119 259.823C3.26835 265.912 -0.00972856 284.902 0.00243047 298.484L0 298.487Z" fill="white" fill-opacity="0.5"/>
<path fill-rule="evenodd" clip-rule="evenodd" d="M224.889 377.13L233.103 377.181C239.27 357.926 256.181 347.059 276.066 346.38C289.789 345.913 319.041 356.241 342.055 352.552C361.974 349.359 375.996 334.039 382.934 319.458C390.271 304.035 386.747 267.417 375.194 259.752C372.283 266.155 364.856 271.5 357.293 274.815C342.746 281.193 308.883 286.871 280.903 299.057C262.56 307.046 252.21 314.784 242.162 327.193C233.276 338.168 223.955 358.138 224.889 377.126V377.13Z" fill="white" fill-opacity="0.5"/>
</svg>
