<svg width="1186" height="400" viewBox="0 0 1186 400" fill="none" xmlns="http://www.w3.org/2000/svg">
<g clip-path="url(#clip0_279_528)">
<rect x="-176" y="-15" width="1503" height="478" fill="#0C4E6E"/>
<path fill-rule="evenodd" clip-rule="evenodd" d="M1090.68 410.774L1100.73 411.282C1103.23 348.848 1090.81 283.131 1121.69 227.357C1125.51 220.463 1130.43 212.378 1135.22 207.263C1137.93 204.377 1140.21 201.461 1142.83 198.446C1151.26 188.731 1157.35 183.305 1165.34 170.3C1201.4 111.635 1166.76 33.5328 1094.8 34.0021C1055.33 34.2599 1027.03 58.0721 1016.37 87.925C1004.33 121.654 1011.76 153.221 1031.74 179.954C1045.49 198.334 1056.54 204.878 1068.6 227.338C1088.71 264.802 1089.32 299.808 1090.04 342.341C1090.43 365.11 1090.12 388.059 1090.68 410.776L1090.68 410.774Z" fill="white" fill-opacity="0.5"/>
<path fill-rule="evenodd" clip-rule="evenodd" d="M1108.19 411.155L1116.67 411.179C1119.69 387.143 1120.67 374.503 1134.48 354.27C1163.88 311.217 1223.44 311.475 1248.2 296.417C1288.77 271.749 1279.96 188.761 1220.08 175.306C1203.93 171.678 1193.08 172.665 1179.59 179.802C1137.54 202.066 1111.63 258.038 1108.67 309.243C1107.71 325.789 1108.03 343.278 1108.01 359.934C1107.98 375.789 1107.07 395.776 1108.19 411.155H1108.19Z" fill="white" fill-opacity="0.5"/>
<path fill-rule="evenodd" clip-rule="evenodd" d="M1082.21 411.177C1083.19 399.905 1082.5 322.455 1081.72 309.07C1079.94 278.855 1071.03 251.548 1058.89 229.907C1048.01 210.502 1029.78 188.683 1009.41 179.061C995.193 172.346 985.086 171.661 968.58 175.78C954.886 179.197 946.28 184.523 936.946 194.213C910.186 221.989 908.708 278.93 945.141 298.105C975.096 313.87 1058.62 313.467 1073.14 394.925C1073.8 398.616 1074.3 402.539 1074.46 406.435C1074.72 413.122 1075.26 411.179 1082.21 411.179L1082.21 411.177Z" fill="white" fill-opacity="0.5"/>
<path fill-rule="evenodd" clip-rule="evenodd" d="M913.248 332.488C913.26 346.969 918.282 361.064 928.035 370.45C929.521 371.883 930.095 373.087 931.605 374.378C971.454 408.52 1009.07 360.653 1046.54 392.23C1051.79 396.648 1055.24 401.821 1057.85 411.169L1065.63 411.178C1066.7 392.58 1057.64 372.145 1049.59 361.557C1040.28 349.303 1030.51 341.013 1013.36 333.212C998.484 326.447 982.492 321.379 965.99 316.691C957.702 314.337 949.161 312.517 941.552 308.943C933.174 305.006 928.234 301.093 924.169 293.824C916.322 299.913 913.239 318.903 913.25 332.485L913.248 332.488Z" fill="white" fill-opacity="0.5"/>
<path fill-rule="evenodd" clip-rule="evenodd" d="M1124.76 411.13L1132.49 411.181C1138.29 391.926 1154.19 381.059 1172.89 380.38C1185.8 379.913 1213.31 390.241 1234.96 386.552C1253.69 383.359 1266.88 368.039 1273.41 353.458C1280.31 338.035 1276.99 301.417 1266.13 293.752C1263.39 300.155 1256.4 305.5 1249.29 308.815C1235.61 315.193 1203.76 320.871 1177.44 333.057C1160.19 341.046 1150.46 348.784 1141.01 361.193C1132.65 372.168 1123.88 392.138 1124.76 411.126V411.13Z" fill="white" fill-opacity="0.5"/>
</g>
<defs>
<clipPath id="clip0_279_528">
<rect width="1186" height="400" rx="30" transform="matrix(-1 0 0 1 1186 0)" fill="white"/>
</clipPath>
</defs>
</svg>
