<svg width="14" height="14" viewBox="0 0 14 14" fill="none" xmlns="http://www.w3.org/2000/svg">
<path fill-rule="evenodd" clip-rule="evenodd" d="M10.0266 4.22312C10.032 4.19784 10.3479 4.214 10.3926 4.214H11.5712V3.22298H13.3214L13.3305 3.12475C13.3305 2.99088 13.3305 2.857 13.3305 2.72312C13.3305 2.58427 13.321 2.47734 13.3214 2.33932C13.3218 2.27217 13.3081 2.04048 13.294 1.97416C13.2654 1.83863 13.1701 1.67408 13.0714 1.59864C12.9471 1.50331 12.8803 1.43534 12.6685 1.40342C12.4301 1.36778 12.1627 1.39306 11.9016 1.39306C11.9016 1.21567 11.9107 1.06521 11.9107 0.884083C11.9107 0.712488 11.9012 0.538822 11.856 0.411992C11.8319 0.344432 11.7855 0.262365 11.7374 0.209312L11.6247 0.116468C11.5078 0.0501519 11.3822 0.00994748 11.2561 0H11.1305C11.0153 0.00911853 10.9017 0.0447637 10.7964 0.108593C10.7686 0.125587 10.745 0.136778 10.7214 0.158331C10.4776 0.376761 10.5004 0.549184 10.5004 0.865846C10.5004 1.04158 10.5004 1.21691 10.5004 1.39265H3.51783C3.51783 1.15018 3.54228 0.593119 3.46725 0.398728C3.4258 0.291378 3.35905 0.206825 3.26827 0.142581C3.14142 0.0530533 2.99343 0.00663165 2.84543 0H2.76874C2.57557 0.00911853 2.38861 0.0849681 2.25678 0.220917L2.15066 0.382564C2.09345 0.526802 2.10754 0.667725 2.10754 0.86626C2.10754 1.042 2.10754 1.21732 2.10754 1.39306C1.72658 1.39306 1.34561 1.39306 0.964645 1.39306C0.773955 1.39306 0.575388 1.38063 0.443563 1.44363C0.306348 1.5087 0.216807 1.57916 0.128923 1.70061C0.0630108 1.79138 0.019069 1.89251 0.00953451 2.00939C0.00455997 2.06825 0.000829089 2.05581 0 2.11508V10.7325V10.7503C0 11.1213 0.00165818 11.4927 0 11.8636V11.8918C0.00248727 12.1247 0.0862254 12.3195 0.27277 12.4596C0.495381 12.6271 0.676537 12.6163 0.982056 12.6163L4.99153 12.6076C4.95795 12.5442 4.71835 12.0713 4.68684 11.9838C4.66653 11.9274 4.64497 11.8756 4.61969 11.8189C4.45138 11.4429 4.33531 10.9385 4.27561 10.529C4.23582 10.2571 4.22462 9.9566 4.22338 9.64326L4.25572 9.21095C4.29302 8.93864 4.31914 8.68125 4.39459 8.42096C4.42982 8.2991 4.46216 8.1789 4.50403 8.05705L4.70011 7.55677C4.72664 7.49999 4.75566 7.45315 4.78011 7.39554C4.80582 7.33544 4.82654 7.29482 4.85515 7.23804C4.92106 7.10665 4.93806 7.06644 5.02262 6.94086L5.20461 6.64989C5.25228 6.57363 5.30078 6.51726 5.35301 6.45053L5.5607 6.19397C5.5835 6.16537 5.59055 6.15791 5.61501 6.13221L6.07888 5.65846C6.10293 5.63856 6.11287 5.6224 6.13858 5.60209C6.16386 5.5822 6.18086 5.57266 6.20407 5.55152L6.46151 5.3447C6.48555 5.32688 6.50296 5.31113 6.52659 5.29372L6.87647 5.06327C6.97347 5.00566 7.0626 4.94017 7.17079 4.88421C7.21929 4.85893 7.26904 4.82826 7.31961 4.8009L7.47714 4.7263C7.67819 4.62558 8.12093 4.47802 8.3423 4.42166C8.58563 4.3599 8.87996 4.29192 9.12703 4.26871C9.26756 4.25586 9.4056 4.23224 9.55525 4.23265L9.77828 4.22354C9.8616 4.22354 9.94493 4.22354 10.0282 4.22354L10.0266 4.22312Z" fill="white"/>
<path fill-rule="evenodd" clip-rule="evenodd" d="M13.9648 9.1881H11.7146C11.6906 9.1881 11.6669 9.18769 11.6429 9.18727C11.5811 9.18686 11.589 9.18934 11.5716 9.20551C11.6479 9.27183 11.7445 9.2855 11.8303 9.48238C11.9099 9.66517 11.9206 9.94452 11.8187 10.1489C11.8071 10.1721 11.7814 10.2106 11.7652 10.2293C11.7527 10.2442 11.749 10.2458 11.7358 10.2624C11.6404 10.3859 11.4779 10.4373 11.3303 10.473C11.1173 10.5248 10.5638 10.4995 10.2853 10.4995C10.0237 10.4995 9.76957 10.5173 9.53825 10.4427C9.33098 10.3756 9.212 10.2243 9.14526 10.0233C9.10091 9.88898 9.11542 9.69211 9.11542 9.51761V7.90156C9.11542 7.64334 9.10132 7.45185 9.26963 7.25249C9.40352 7.09416 9.60292 7.00007 9.83838 7.00007H12.8745C12.8886 6.98142 12.8869 7.0009 12.8923 6.96442C12.8612 6.90474 12.7808 6.83055 12.729 6.78869C12.4898 6.59595 12.266 6.38042 12.0011 6.22168C11.9737 6.2051 11.953 6.19557 11.9281 6.17857C11.9036 6.16241 11.8771 6.14832 11.8493 6.13215C11.7511 6.07537 11.6396 6.01734 11.5339 5.97465L11.3705 5.90585C10.9427 5.73384 10.4921 5.60742 10.0083 5.60742C9.93082 5.60742 9.85372 5.60742 9.7762 5.60742C9.68707 5.60742 9.63318 5.61654 9.54405 5.61613C9.14029 5.6153 8.71414 5.70648 8.35638 5.84823L8.02889 5.99413C7.68482 6.16614 7.38469 6.35597 7.09119 6.59222C7.06756 6.61129 7.04932 6.62372 7.02818 6.64528C7.00207 6.67139 6.99378 6.67636 6.966 6.69957L6.6153 7.06307C6.60452 7.07675 6.6041 7.07799 6.59084 7.09208C6.58296 7.10037 6.58545 7.09789 6.57799 7.10576L6.45611 7.26078C6.27993 7.52024 6.14976 7.69888 6.01213 7.99565C5.98477 8.05492 5.95866 8.1001 5.93503 8.15937L5.7746 8.58835C5.74268 8.67581 5.72029 8.7757 5.69708 8.86812C5.62495 9.15619 5.60588 9.41192 5.60588 9.72319L5.66972 10.606C5.70206 10.7983 5.75553 10.9803 5.81688 11.1639C5.84051 11.2344 5.85834 11.2738 5.88528 11.3368C5.90974 11.394 5.92964 11.4449 5.9541 11.5001C6.02581 11.6613 6.1166 11.813 6.20117 11.9676C6.21733 11.997 6.22604 12.0128 6.24345 12.0414C6.33465 12.1906 6.49384 12.3957 6.59871 12.5164C6.6725 12.6009 6.73966 12.688 6.8234 12.7651L6.94693 12.8736C6.97015 12.894 6.98839 12.906 7.00994 12.9267C7.03523 12.9507 7.04601 12.9644 7.0742 12.9876C7.07586 12.9889 7.07793 12.9905 7.07917 12.9914C7.08042 12.9926 7.08249 12.9943 7.08415 12.9955L7.12933 13.0398C7.13058 13.0411 7.13223 13.0432 7.13389 13.0444C7.15462 13.0647 7.1741 13.078 7.19773 13.0966C7.41868 13.2769 7.66658 13.4328 7.92153 13.5604C8.08196 13.6408 8.24404 13.7154 8.41566 13.7718C8.47992 13.793 8.53381 13.8112 8.59641 13.8319C9.04909 13.9832 9.37285 13.9994 9.84377 14.0006H9.86947C10.33 13.999 10.8532 13.9177 11.2549 13.7557C11.4 13.6972 11.6135 13.6093 11.7445 13.531C11.7942 13.5012 11.8439 13.478 11.8954 13.4498C12.045 13.3665 12.181 13.2591 12.3227 13.1629C12.3683 13.1323 12.4098 13.0958 12.4529 13.061L12.7613 12.78C12.7638 12.7775 12.775 12.7675 12.7754 12.7675L12.8231 12.717C12.8662 12.6743 12.8977 12.6449 12.9359 12.5972L13.1514 12.3398C13.3396 12.0948 13.4806 11.8453 13.6199 11.5672C13.6281 11.551 13.6315 11.5407 13.6393 11.5241L13.7446 11.2721C13.7898 11.1531 13.8304 11.0429 13.862 10.9161C13.9316 10.6359 13.9532 10.4974 13.9884 10.2214C13.9929 10.1837 13.9971 10.1381 14 10.0879V9.56611C13.9954 9.46746 13.988 9.3771 13.9784 9.3083C13.973 9.27141 13.966 9.22085 13.9643 9.18852L13.9648 9.1881Z" fill="white"/>
<path fill-rule="evenodd" clip-rule="evenodd" d="M9.83922 7.00007C9.93747 7.01417 10.0233 7.03075 10.1016 7.06846C10.3018 7.16462 10.4204 7.34741 10.4714 7.56501C10.5191 7.76769 10.5004 8.18009 10.5004 8.41096C10.5004 8.64307 10.5004 8.87518 10.5004 9.10728C10.735 9.10728 11.1322 9.09029 11.3448 9.13795C11.3842 9.14666 11.4215 9.15495 11.4593 9.16655C11.502 9.17982 11.5272 9.19515 11.572 9.20551C11.5894 9.18893 11.5815 9.18645 11.6433 9.18728C11.6669 9.18728 11.691 9.18811 11.715 9.18811H13.9652C13.9208 8.87849 13.8155 8.52328 13.6986 8.23149L13.5722 7.94716C13.5506 7.89866 13.5237 7.85804 13.5009 7.81328C13.4234 7.66283 13.3604 7.5675 13.2692 7.42906C13.2401 7.38471 13.2115 7.35487 13.1784 7.31425L12.894 6.96484C12.8886 7.00132 12.8903 6.98184 12.8762 7.00049H9.84005L9.83922 7.00007Z" fill="white"/>
<path fill-rule="evenodd" clip-rule="evenodd" d="M10.0266 4.22337C10.0233 4.24451 10.015 4.22503 10.039 4.23041L10.1423 4.2329C10.1746 4.23539 10.2343 4.23953 10.2728 4.24492C10.3603 4.25736 10.4482 4.26191 10.5278 4.27559L10.7753 4.31372C11.012 4.35434 11.4485 4.47496 11.6694 4.56283L11.8763 4.64158C11.9459 4.66976 12.006 4.69836 12.0765 4.72696C12.3534 4.84136 12.7265 5.07844 12.9802 5.25169L13.2306 5.42991C13.2596 5.45022 13.2903 5.46556 13.3214 5.48214C13.3214 5.27863 13.3305 5.09792 13.3305 4.90187V3.125L13.3214 3.22323H11.5712V4.21425H10.3926C10.3479 4.21425 10.0316 4.19767 10.0266 4.22337V4.22337Z" fill="white"/>
</svg>
