<svg width="576" height="1016" viewBox="0 0 576 1016" fill="none" xmlns="http://www.w3.org/2000/svg">
<path fill-rule="evenodd" clip-rule="evenodd" d="M446.303 1018.09L468.18 1019.13C473.616 891.283 446.582 756.71 513.818 642.501C522.13 628.388 532.846 611.823 543.284 601.353C549.178 595.442 554.147 589.475 559.844 583.299C578.201 563.401 591.464 552.296 608.865 525.664C687.362 405.534 611.942 245.605 455.282 246.561C369.338 247.087 307.716 295.847 284.518 356.979C258.306 426.049 274.473 490.688 317.994 545.429C347.913 583.065 371.985 596.466 398.233 642.46C442.014 719.179 443.354 790.859 444.922 877.951C445.763 924.576 445.091 971.572 446.303 1018.09V1018.09Z" fill="#005FAE" fill-opacity="0.3"/>
<path fill-rule="evenodd" clip-rule="evenodd" d="M484.433 1018.87L502.886 1018.92C509.465 969.702 511.605 943.816 541.679 902.389C605.674 814.226 735.364 814.752 789.268 783.923C877.58 733.412 858.41 563.475 728.03 535.924C692.876 528.494 669.248 530.52 639.891 545.132C548.318 590.719 491.922 705.34 485.48 810.189C483.395 844.073 484.081 879.885 484.031 913.992C483.985 946.458 481.983 987.391 484.438 1018.88L484.433 1018.87Z" fill="#005FAE" fill-opacity="0.3"/>
<path fill-rule="evenodd" clip-rule="evenodd" d="M427.868 1018.92C430.008 995.831 428.504 837.237 426.794 809.828C422.931 747.955 403.527 692.04 377.101 647.723C353.404 607.988 313.71 563.31 269.361 543.6C238.414 529.852 216.408 528.448 180.468 536.884C150.658 543.879 131.918 554.788 111.595 574.626C53.3294 631.506 50.1153 748.101 129.44 787.366C194.655 819.649 376.506 818.821 408.122 985.627C409.553 993.184 410.646 1001.22 410.984 1009.2C411.565 1022.89 412.744 1018.91 427.873 1018.91L427.868 1018.92Z" fill="#005FAE" fill-opacity="0.3"/>
<path fill-rule="evenodd" clip-rule="evenodd" d="M60.0046 857.78C60.032 887.434 70.9682 916.297 92.1961 935.517C95.4376 938.448 96.6812 940.912 99.9685 943.56C186.732 1013.47 268.621 915.455 350.217 980.117C361.634 989.165 369.159 999.759 374.833 1018.9L391.768 1018.92C394.104 980.835 374.381 938.988 356.851 917.307C336.565 892.216 315.301 875.236 277.966 859.265C245.578 845.412 210.757 835.038 174.831 825.437C156.78 820.614 138.191 816.892 121.622 809.572C103.384 801.512 92.6259 793.497 83.7744 778.615C66.6934 791.083 59.9771 829.973 60 857.784L60.0046 857.78Z" fill="#005FAE" fill-opacity="0.3"/>
<path fill-rule="evenodd" clip-rule="evenodd" d="M520.511 1018.82L537.332 1018.93C549.964 979.5 584.588 957.243 625.311 955.858C653.41 954.903 713.313 976.053 760.441 968.5C801.228 961.962 829.94 930.589 844.15 900.729C859.178 869.15 851.954 794.164 828.299 778.469C822.337 791.581 807.13 802.527 791.645 809.316C761.854 822.378 692.51 834.005 635.214 858.959C597.655 875.318 576.454 891.164 555.88 916.575C537.684 939.047 518.6 979.939 520.511 1018.82V1018.82Z" fill="#005FAE" fill-opacity="0.3"/>
</svg>
